<svg xmlns="http://www.w3.org/2000/svg" xmlns:xlink="http://www.w3.org/1999/xlink" width="500" zoomAndPan="magnify" viewBox="0 0 375 374.999991" height="500" preserveAspectRatio="xMidYMid meet" version="1.2"><defs><clipPath id="e577077bfa"><path d="M 0 106.804688 L 89 106.804688 L 89 231 L 0 231 Z M 0 106.804688 "/></clipPath><clipPath id="a326ab8f20"><path d="M 66.964844 197.199219 L 89 197.199219 L 89 230.949219 L 66.964844 230.949219 Z M 66.964844 197.199219 "/></clipPath><clipPath id="1e32fc04e2"><path d="M 50 213 L 79 213 L 79 248 L 50 248 Z M 50 213 "/></clipPath><clipPath id="71bde58e8c"><path d="M 56.039062 213.046875 L 78.199219 216.957031 L 72.339844 250.191406 L 50.179688 246.285156 Z M 56.039062 213.046875 "/></clipPath><clipPath id="b73084d642"><path d="M 5.789062 112.398438 L 93.683594 127.894531 L 72.0625 250.503906 L -15.828125 235.007812 Z M 5.789062 112.398438 "/></clipPath></defs><g id="17900c5dbb"><g clip-rule="nonzero" clip-path="url(#e577077bfa)"><path style=" stroke:none;fill-rule:nonzero;fill:#808000;fill-opacity:1;" d="M 8.46875 106.808594 C 8.414062 106.800781 8.339844 106.808594 8.242188 106.824219 C 7.652344 106.9375 6.859375 109.15625 6.484375 111.746094 C 6.179688 113.84375 6.277344 115.695312 6.875 119.136719 L 7.21875 121.140625 L 6.015625 122.195312 C 5.351562 122.777344 4.609375 123.640625 4.367188 124.117188 C 3.773438 125.277344 1.578125 132.179688 1.140625 134.261719 C 0.101562 139.183594 1.410156 141.996094 2.707031 137.625 C 3.203125 135.949219 5.527344 130.0625 6.152344 128.910156 C 6.648438 127.988281 6.574219 128.796875 5.894531 131.820312 C 5.121094 135.246094 4.65625 138.921875 4.476562 143.066406 C 4.300781 147.136719 4.503906 148.773438 5.183594 148.773438 C 5.601562 148.773438 5.675781 148.554688 5.828125 146.898438 C 6.074219 144.171875 6.609375 141.546875 7.570312 138.304688 C 8.039062 136.738281 8.664062 134.601562 8.964844 133.5625 C 9.261719 132.523438 9.617188 131.632812 9.753906 131.589844 C 10.097656 131.472656 11.941406 138.222656 11.957031 139.65625 C 11.964844 140.167969 11.824219 140.320312 11.265625 140.445312 C 10.238281 140.667969 8.734375 142.429688 8.289062 143.917969 C 8.085938 144.609375 7.917969 145.890625 7.917969 146.765625 C 7.917969 149.527344 8.816406 151.253906 10.824219 152.347656 C 13.207031 153.644531 15.453125 152.660156 16.757812 149.75 C 17.523438 148.054688 17.542969 144.921875 16.796875 143.539062 C 16.269531 142.558594 15.226562 141.476562 13.984375 140.628906 C 13.332031 140.183594 13.214844 139.894531 12.699219 137.375 C 12.386719 135.851562 12.1875 134.550781 12.253906 134.484375 C 12.320312 134.417969 13.109375 135.519531 14.011719 136.929688 C 16.121094 140.242188 18.671875 143.667969 20.890625 146.15625 L 22.652344 148.136719 L 22.894531 151.074219 C 23.355469 156.65625 24.34375 161.109375 26.707031 168.28125 C 27.613281 171.03125 28.414062 173.578125 28.492188 173.941406 C 28.566406 174.308594 28.796875 174.671875 29.003906 174.75 C 29.433594 174.914062 29.859375 174.386719 29.683594 173.910156 C 29.617188 173.730469 29.511719 171.214844 29.449219 168.316406 C 29.324219 162.503906 29.207031 160.996094 28.707031 158.527344 C 28.316406 156.613281 27.3125 153.394531 26.792969 152.390625 C 26.597656 152.011719 26.496094 151.648438 26.5625 151.578125 C 26.632812 151.507812 27.71875 152.136719 28.976562 152.96875 C 30.234375 153.800781 32.832031 155.34375 34.75 156.394531 L 38.234375 158.304688 L 38.664062 159.710938 C 38.898438 160.484375 39.203125 162.140625 39.339844 163.390625 C 40.113281 170.476562 42.566406 177.296875 46.414062 183.039062 C 48.90625 186.757812 49.316406 186.15625 47.792969 181.011719 C 46.992188 178.308594 46.574219 176.160156 45.378906 168.644531 C 44.921875 165.765625 44.332031 164.035156 43.210938 162.269531 C 41.820312 160.085938 41.738281 160.070312 47.292969 163.058594 C 52.925781 166.089844 53.945312 166.679688 54.402344 167.183594 C 54.640625 167.449219 54.980469 168.671875 55.25 170.238281 C 55.78125 173.328125 55.984375 174.046875 57.90625 179.550781 C 59.878906 185.214844 61.324219 188.515625 63.476562 192.304688 C 65.28125 195.480469 65.71875 195.988281 66.171875 195.441406 C 66.339844 195.238281 66.140625 194.554688 65.503906 193.136719 C 64.164062 190.164062 63.648438 188.074219 62.980469 182.914062 C 62.269531 177.453125 61.527344 174.433594 60.339844 172.171875 C 59.867188 171.269531 59.53125 170.476562 59.59375 170.414062 C 59.753906 170.25 62.105469 171.855469 64.507812 173.761719 C 66.46875 175.320312 66.496094 175.359375 66.355469 176.214844 C 66.273438 176.695312 66.207031 177.539062 66.207031 178.09375 C 66.207031 179.015625 66.136719 179.128906 65.386719 179.441406 C 64.351562 179.875 63.777344 180.964844 63.789062 182.488281 C 63.808594 185.035156 65.355469 187.671875 66.832031 187.671875 C 68.359375 187.671875 69.296875 186.265625 69.296875 183.984375 C 69.296875 182.480469 68.9375 181.464844 68.023438 180.382812 C 67.421875 179.667969 67.167969 178.632812 67.597656 178.632812 C 67.800781 178.632812 69.902344 181.675781 71.363281 184.085938 L 72.144531 185.375 L 71.589844 186.105469 C 69.472656 188.886719 69.289062 191.539062 71.105469 193.132812 C 73.285156 195.046875 76.714844 192.957031 77.289062 189.363281 C 77.375 188.824219 77.546875 188.386719 77.667969 188.386719 C 78.058594 188.386719 79.9375 192.6875 80.699219 195.320312 C 81.101562 196.714844 81.425781 198.320312 81.425781 198.886719 C 81.417969 200.429688 80.507812 202.679688 78.613281 205.847656 C 76.15625 209.949219 74.640625 214.167969 73.902344 218.957031 C 73.238281 223.234375 73.839844 229.074219 75.046875 230.085938 C 75.828125 230.738281 76.386719 230.183594 77.386719 227.742188 C 77.867188 226.574219 79.074219 224.117188 80.074219 222.285156 C 83.371094 216.230469 83.929688 213.90625 83.742188 206.941406 C 83.675781 204.519531 83.5 202.164062 83.347656 201.707031 C 83.195312 201.25 82.972656 200.234375 82.851562 199.449219 C 82.53125 197.339844 81.261719 193.074219 80.242188 190.714844 C 79.21875 188.335938 77.753906 185.914062 75.578125 182.996094 C 74.007812 180.882812 73.753906 180.441406 74.472656 181.054688 C 80.195312 185.949219 86.722656 190.210938 88.167969 190.003906 C 89.144531 189.867188 88.875 189.136719 87.097656 187.113281 C 86.140625 186.023438 84.523438 184.097656 83.507812 182.835938 C 81.101562 179.851562 79.246094 178.332031 76.316406 176.949219 C 73.5625 175.644531 71.410156 175.0625 69.363281 175.0625 C 68.042969 175.0625 67.824219 174.984375 66.882812 174.191406 C 64.859375 172.488281 61.15625 169.820312 58.820312 168.382812 C 57.515625 167.582031 56.511719 166.832031 56.582031 166.714844 C 56.65625 166.59375 57.132812 166.5 57.640625 166.5 C 58.417969 166.5 58.667969 166.628906 59.199219 167.324219 C 60.507812 169.042969 64.253906 170.121094 65.914062 169.261719 C 66.832031 168.785156 67.15625 168.222656 67.15625 167.097656 C 67.15625 165.328125 65.640625 163.671875 63.449219 163.03125 C 61.503906 162.46875 60.65625 162.707031 59.09375 164.257812 L 57.792969 165.546875 L 55.945312 165.546875 C 54.316406 165.546875 53.945312 165.460938 52.886719 164.835938 C 51.710938 164.140625 43.292969 159.625 38.90625 157.332031 C 37.695312 156.703125 36.703125 156.09375 36.703125 155.988281 C 36.703125 155.664062 40.304688 155.769531 42.5625 156.15625 C 45.457031 156.65625 47.65625 157.292969 51.601562 158.773438 C 55.6875 160.304688 58.800781 161.09375 63.347656 161.75 C 66.996094 162.277344 72.527344 162.714844 73.039062 162.519531 C 73.203125 162.457031 73.339844 162.203125 73.339844 161.960938 C 73.339844 161.640625 73.0625 161.449219 72.332031 161.265625 C 69.777344 160.621094 67.511719 159.589844 64.082031 157.511719 C 56.050781 152.644531 52.519531 151.429688 46.339844 151.410156 C 41.582031 151.398438 37.242188 152.195312 34.875 153.519531 C 33.476562 154.300781 33.179688 154.285156 31.65625 153.355469 C 26.945312 150.476562 23.46875 147.550781 20.398438 143.867188 C 18.46875 141.550781 15.53125 137.421875 15.53125 137.023438 C 15.53125 136.398438 16.09375 136.753906 21.171875 140.621094 C 25.742188 144.101562 33.089844 147.734375 40.09375 149.988281 C 42.011719 150.605469 42.210938 150.625 42.5625 150.273438 C 42.773438 150.0625 42.875 149.773438 42.785156 149.628906 C 42.695312 149.488281 40.945312 148.519531 38.890625 147.480469 C 34.683594 145.351562 31.585938 143.445312 27.839844 140.675781 C 24.394531 138.132812 21.246094 136.171875 19.632812 135.566406 C 18.890625 135.289062 17.351562 134.996094 16.15625 134.902344 L 14.011719 134.738281 L 13.226562 133.429688 C 11.742188 130.964844 8.855469 123.847656 9.199219 123.503906 C 9.285156 123.417969 10.183594 124.183594 11.195312 125.207031 C 14.671875 128.722656 18.148438 130.5625 21.324219 130.570312 C 22.742188 130.570312 25.40625 129.699219 30.347656 127.597656 C 35.097656 125.582031 35.558594 124.933594 32.636719 124.386719 C 30.394531 123.964844 28.828125 123.429688 26.660156 122.339844 C 23.695312 120.851562 22.160156 120.492188 18.742188 120.492188 C 16.621094 120.492188 15.253906 120.628906 13.417969 121.039062 C 10.730469 121.636719 8.972656 121.609375 8.496094 120.957031 C 8.101562 120.417969 7.441406 115.972656 7.441406 113.855469 C 7.441406 112.804688 7.648438 111.332031 7.949219 110.210938 C 8.226562 109.175781 8.507812 107.972656 8.574219 107.535156 C 8.648438 107.023438 8.640625 106.839844 8.46875 106.808594 Z M 68.765625 177.539062 C 68.820312 177.554688 68.898438 177.59375 69.007812 177.652344 C 69.988281 178.179688 75.484375 184.324219 75.484375 184.898438 C 75.484375 184.984375 75.402344 185.039062 75.304688 185.019531 C 75.207031 185.003906 74.699219 184.921875 74.171875 184.84375 C 73.273438 184.707031 73.125 184.554688 71.367188 181.960938 C 70.34375 180.457031 69.296875 178.820312 69.035156 178.320312 C 68.691406 177.667969 68.605469 177.488281 68.765625 177.539062 Z M 68.765625 177.539062 "/></g><g style="fill:#000000;fill-opacity:1;"><g transform="translate(134.827174, 194.592294)"><path style="stroke:none" d="M 28.765625 -9.03125 C 28.765625 -9.101562 28.847656 -9.140625 29.015625 -9.140625 C 29.128906 -9.140625 29.238281 -9.117188 29.34375 -9.078125 C 29.445312 -9.046875 29.5 -8.988281 29.5 -8.90625 C 29.132812 -6.363281 28.953125 -3.695312 28.953125 -0.90625 C 28.953125 -0.582031 28.878906 -0.347656 28.734375 -0.203125 C 28.597656 -0.0664062 28.347656 0 27.984375 0 L 2.609375 0 C 2.523438 0 2.484375 -0.117188 2.484375 -0.359375 C 2.484375 -0.609375 2.523438 -0.734375 2.609375 -0.734375 C 4.140625 -0.734375 5.257812 -0.832031 5.96875 -1.03125 C 6.675781 -1.226562 7.160156 -1.617188 7.421875 -2.203125 C 7.679688 -2.796875 7.8125 -3.695312 7.8125 -4.90625 L 7.8125 -32.953125 C 7.8125 -34.160156 7.679688 -35.046875 7.421875 -35.609375 C 7.160156 -36.171875 6.675781 -36.5625 5.96875 -36.78125 C 5.257812 -37.007812 4.140625 -37.125 2.609375 -37.125 C 2.523438 -37.125 2.484375 -37.242188 2.484375 -37.484375 C 2.484375 -37.734375 2.523438 -37.859375 2.609375 -37.859375 L 26.953125 -37.859375 C 27.316406 -37.859375 27.5 -37.675781 27.5 -37.3125 L 27.609375 -29.859375 C 27.609375 -29.734375 27.507812 -29.660156 27.3125 -29.640625 C 27.113281 -29.617188 26.992188 -29.671875 26.953125 -29.796875 C 26.828125 -31.929688 26.175781 -33.59375 25 -34.78125 C 23.832031 -35.976562 22.28125 -36.578125 20.34375 -36.578125 L 16.65625 -36.578125 C 15.238281 -36.578125 14.195312 -36.460938 13.53125 -36.234375 C 12.863281 -36.015625 12.398438 -35.632812 12.140625 -35.09375 C 11.878906 -34.550781 11.75 -33.734375 11.75 -32.640625 L 11.75 -20.34375 L 19.140625 -20.34375 C 21.078125 -20.34375 22.457031 -20.664062 23.28125 -21.3125 C 24.113281 -21.957031 24.53125 -23.050781 24.53125 -24.59375 C 24.53125 -24.664062 24.648438 -24.703125 24.890625 -24.703125 C 25.128906 -24.703125 25.25 -24.664062 25.25 -24.59375 L 25.1875 -19.6875 C 25.1875 -18.507812 25.207031 -17.617188 25.25 -17.015625 L 25.3125 -14.109375 C 25.3125 -14.023438 25.191406 -13.984375 24.953125 -13.984375 C 24.710938 -13.984375 24.59375 -14.023438 24.59375 -14.109375 C 24.59375 -15.890625 24.15625 -17.160156 23.28125 -17.921875 C 22.414062 -18.691406 20.972656 -19.078125 18.953125 -19.078125 L 11.75 -19.078125 L 11.75 -5.140625 C 11.75 -4.015625 11.867188 -3.1875 12.109375 -2.65625 C 12.347656 -2.132812 12.789062 -1.769531 13.4375 -1.5625 C 14.082031 -1.363281 15.09375 -1.265625 16.46875 -1.265625 L 21.3125 -1.265625 C 23.25 -1.265625 24.863281 -1.953125 26.15625 -3.328125 C 27.445312 -4.703125 28.316406 -6.601562 28.765625 -9.03125 Z M 28.765625 -9.03125 "/></g></g><g style="fill:#000000;fill-opacity:1;"><g transform="translate(167.345978, 194.592294)"><path style="stroke:none" d="M 41.359375 -0.734375 C 41.441406 -0.734375 41.484375 -0.609375 41.484375 -0.359375 C 41.484375 -0.117188 41.441406 0 41.359375 0 L 33.546875 0 C 32.535156 0 30.640625 -1.671875 27.859375 -5.015625 C 25.078125 -8.367188 21.765625 -12.972656 17.921875 -18.828125 C 16.835938 -18.585938 15.707031 -18.46875 14.53125 -18.46875 C 14.289062 -18.46875 13.382812 -18.53125 11.8125 -18.65625 L 11.8125 -4.90625 C 11.8125 -3.65625 11.929688 -2.742188 12.171875 -2.171875 C 12.410156 -1.609375 12.882812 -1.226562 13.59375 -1.03125 C 14.300781 -0.832031 15.421875 -0.734375 16.953125 -0.734375 C 17.078125 -0.734375 17.140625 -0.609375 17.140625 -0.359375 C 17.140625 -0.117188 17.078125 0 16.953125 0 C 15.703125 0 14.710938 -0.0195312 13.984375 -0.0625 L 9.8125 -0.125 L 5.6875 -0.0625 C 4.96875 -0.0195312 3.941406 0 2.609375 0 C 2.523438 0 2.484375 -0.117188 2.484375 -0.359375 C 2.484375 -0.609375 2.523438 -0.734375 2.609375 -0.734375 C 4.140625 -0.734375 5.265625 -0.832031 5.984375 -1.03125 C 6.710938 -1.226562 7.207031 -1.617188 7.46875 -2.203125 C 7.738281 -2.796875 7.875 -3.695312 7.875 -4.90625 L 7.875 -32.953125 C 7.875 -34.160156 7.75 -35.046875 7.5 -35.609375 C 7.257812 -36.171875 6.785156 -36.5625 6.078125 -36.78125 C 5.378906 -37.007812 4.257812 -37.125 2.71875 -37.125 C 2.601562 -37.125 2.546875 -37.242188 2.546875 -37.484375 C 2.546875 -37.734375 2.601562 -37.859375 2.71875 -37.859375 L 5.6875 -37.796875 C 7.382812 -37.710938 8.757812 -37.671875 9.8125 -37.671875 C 10.695312 -37.671875 11.519531 -37.691406 12.28125 -37.734375 C 13.050781 -37.773438 13.703125 -37.816406 14.234375 -37.859375 C 15.722656 -37.972656 17.078125 -38.03125 18.296875 -38.03125 C 21.484375 -38.03125 23.941406 -37.300781 25.671875 -35.84375 C 27.410156 -34.394531 28.28125 -32.457031 28.28125 -30.03125 C 28.28125 -27.851562 27.644531 -25.882812 26.375 -24.125 C 25.101562 -22.375 23.414062 -20.992188 21.3125 -19.984375 C 24.707031 -15.097656 27.566406 -11.269531 29.890625 -8.5 C 32.210938 -5.738281 34.269531 -3.753906 36.0625 -2.546875 C 37.863281 -1.335938 39.628906 -0.734375 41.359375 -0.734375 Z M 11.8125 -20.109375 C 12.820312 -19.941406 14.015625 -19.859375 15.390625 -19.859375 C 18.535156 -19.859375 20.785156 -20.546875 22.140625 -21.921875 C 23.492188 -23.296875 24.171875 -25.414062 24.171875 -28.28125 C 24.171875 -31.425781 23.472656 -33.6875 22.078125 -35.0625 C 20.679688 -36.4375 18.648438 -37.125 15.984375 -37.125 C 14.410156 -37.125 13.320312 -36.835938 12.71875 -36.265625 C 12.113281 -35.703125 11.8125 -34.554688 11.8125 -32.828125 Z M 11.8125 -20.109375 "/></g></g><g style="fill:#000000;fill-opacity:1;"><g transform="translate(208.100453, 194.592294)"><path style="stroke:none" d="M 18.34375 0.25 C 17.175781 0.25 15.828125 0.1875 14.296875 0.0625 C 13.722656 0.0195312 13.003906 -0.0195312 12.140625 -0.0625 C 11.273438 -0.101562 10.316406 -0.125 9.265625 -0.125 L 5.140625 -0.0625 C 4.421875 -0.0195312 3.414062 0 2.125 0 C 2.039062 0 2 -0.117188 2 -0.359375 C 2 -0.609375 2.039062 -0.734375 2.125 -0.734375 C 3.65625 -0.734375 4.773438 -0.832031 5.484375 -1.03125 C 6.191406 -1.226562 6.675781 -1.617188 6.9375 -2.203125 C 7.195312 -2.796875 7.328125 -3.695312 7.328125 -4.90625 L 7.328125 -32.953125 C 7.328125 -34.160156 7.203125 -35.046875 6.953125 -35.609375 C 6.710938 -36.171875 6.238281 -36.5625 5.53125 -36.78125 C 4.832031 -37.007812 3.71875 -37.125 2.1875 -37.125 C 2.101562 -37.125 2.0625 -37.242188 2.0625 -37.484375 C 2.0625 -37.734375 2.101562 -37.859375 2.1875 -37.859375 L 5.203125 -37.796875 C 6.898438 -37.710938 8.253906 -37.671875 9.265625 -37.671875 C 10.796875 -37.671875 12.3125 -37.734375 13.8125 -37.859375 C 15.582031 -37.929688 16.8125 -37.96875 17.5 -37.96875 C 21.695312 -37.96875 25.421875 -37.160156 28.671875 -35.546875 C 31.921875 -33.929688 34.429688 -31.726562 36.203125 -28.9375 C 37.984375 -26.15625 38.875 -23.03125 38.875 -19.5625 C 38.875 -15.644531 37.957031 -12.179688 36.125 -9.171875 C 34.289062 -6.160156 31.796875 -3.835938 28.640625 -2.203125 C 25.492188 -0.566406 22.0625 0.25 18.34375 0.25 Z M 17.75 -0.671875 C 20.976562 -0.671875 23.84375 -1.34375 26.34375 -2.6875 C 28.84375 -4.039062 30.789062 -6.039062 32.1875 -8.6875 C 33.582031 -11.332031 34.28125 -14.515625 34.28125 -18.234375 C 34.28125 -21.742188 33.613281 -24.929688 32.28125 -27.796875 C 30.945312 -30.660156 29.046875 -32.921875 26.578125 -34.578125 C 24.117188 -36.234375 21.273438 -37.0625 18.046875 -37.0625 C 16.304688 -37.0625 14.960938 -36.957031 14.015625 -36.75 C 13.066406 -36.550781 12.367188 -36.148438 11.921875 -35.546875 C 11.484375 -34.941406 11.265625 -34.035156 11.265625 -32.828125 L 11.265625 -5.578125 C 11.265625 -4.359375 11.4375 -3.40625 11.78125 -2.71875 C 12.125 -2.039062 12.769531 -1.53125 13.71875 -1.1875 C 14.664062 -0.84375 16.007812 -0.671875 17.75 -0.671875 Z M 17.75 -0.671875 "/></g></g><g style="fill:#000000;fill-opacity:1;"><g transform="translate(249.218265, 194.592294)"><path style="stroke:none" d="M 42.328125 -0.734375 C 42.492188 -0.734375 42.578125 -0.609375 42.578125 -0.359375 C 42.578125 -0.117188 42.492188 0 42.328125 0 C 41.566406 0 40.378906 -0.0390625 38.765625 -0.125 C 37.148438 -0.207031 35.976562 -0.25 35.25 -0.25 C 34.363281 -0.25 33.234375 -0.207031 31.859375 -0.125 C 30.566406 -0.0390625 29.578125 0 28.890625 0 C 28.722656 0 28.640625 -0.117188 28.640625 -0.359375 C 28.640625 -0.609375 28.722656 -0.734375 28.890625 -0.734375 C 30.378906 -0.734375 31.46875 -0.875 32.15625 -1.15625 C 32.84375 -1.4375 33.1875 -1.921875 33.1875 -2.609375 C 33.1875 -3.171875 32.925781 -4.035156 32.40625 -5.203125 L 27.015625 -16.65625 L 12.59375 -16.65625 L 8.78125 -7.6875 C 8.21875 -6.3125 7.9375 -5.203125 7.9375 -4.359375 C 7.9375 -3.109375 8.429688 -2.191406 9.421875 -1.609375 C 10.410156 -1.023438 11.894531 -0.734375 13.875 -0.734375 C 14.070312 -0.734375 14.171875 -0.609375 14.171875 -0.359375 C 14.171875 -0.117188 14.070312 0 13.875 0 C 13.144531 0 12.09375 -0.0390625 10.71875 -0.125 C 9.1875 -0.207031 7.851562 -0.25 6.71875 -0.25 C 5.664062 -0.25 4.457031 -0.207031 3.09375 -0.125 C 1.875 -0.0390625 0.863281 0 0.0625 0 C -0.144531 0 -0.25 -0.117188 -0.25 -0.359375 C -0.25 -0.609375 -0.144531 -0.734375 0.0625 -0.734375 C 1.1875 -0.734375 2.144531 -0.941406 2.9375 -1.359375 C 3.726562 -1.785156 4.472656 -2.53125 5.171875 -3.59375 C 5.878906 -4.664062 6.660156 -6.210938 7.515625 -8.234375 L 20.28125 -38.390625 C 20.363281 -38.515625 20.503906 -38.578125 20.703125 -38.578125 C 20.910156 -38.578125 21.035156 -38.515625 21.078125 -38.390625 L 35.375 -8.296875 C 36.738281 -5.304688 37.90625 -3.296875 38.875 -2.265625 C 39.84375 -1.242188 40.992188 -0.734375 42.328125 -0.734375 Z M 13.078125 -17.859375 L 26.46875 -17.859375 L 19.375 -32.828125 Z M 13.078125 -17.859375 "/></g></g><g style="fill:#000000;fill-opacity:1;"><g transform="translate(291.728878, 194.592294)"><path style="stroke:none" d="M 41.359375 -0.734375 C 41.441406 -0.734375 41.484375 -0.609375 41.484375 -0.359375 C 41.484375 -0.117188 41.441406 0 41.359375 0 L 33.546875 0 C 32.535156 0 30.640625 -1.671875 27.859375 -5.015625 C 25.078125 -8.367188 21.765625 -12.972656 17.921875 -18.828125 C 16.835938 -18.585938 15.707031 -18.46875 14.53125 -18.46875 C 14.289062 -18.46875 13.382812 -18.53125 11.8125 -18.65625 L 11.8125 -4.90625 C 11.8125 -3.65625 11.929688 -2.742188 12.171875 -2.171875 C 12.410156 -1.609375 12.882812 -1.226562 13.59375 -1.03125 C 14.300781 -0.832031 15.421875 -0.734375 16.953125 -0.734375 C 17.078125 -0.734375 17.140625 -0.609375 17.140625 -0.359375 C 17.140625 -0.117188 17.078125 0 16.953125 0 C 15.703125 0 14.710938 -0.0195312 13.984375 -0.0625 L 9.8125 -0.125 L 5.6875 -0.0625 C 4.96875 -0.0195312 3.941406 0 2.609375 0 C 2.523438 0 2.484375 -0.117188 2.484375 -0.359375 C 2.484375 -0.609375 2.523438 -0.734375 2.609375 -0.734375 C 4.140625 -0.734375 5.265625 -0.832031 5.984375 -1.03125 C 6.710938 -1.226562 7.207031 -1.617188 7.46875 -2.203125 C 7.738281 -2.796875 7.875 -3.695312 7.875 -4.90625 L 7.875 -32.953125 C 7.875 -34.160156 7.75 -35.046875 7.5 -35.609375 C 7.257812 -36.171875 6.785156 -36.5625 6.078125 -36.78125 C 5.378906 -37.007812 4.257812 -37.125 2.71875 -37.125 C 2.601562 -37.125 2.546875 -37.242188 2.546875 -37.484375 C 2.546875 -37.734375 2.601562 -37.859375 2.71875 -37.859375 L 5.6875 -37.796875 C 7.382812 -37.710938 8.757812 -37.671875 9.8125 -37.671875 C 10.695312 -37.671875 11.519531 -37.691406 12.28125 -37.734375 C 13.050781 -37.773438 13.703125 -37.816406 14.234375 -37.859375 C 15.722656 -37.972656 17.078125 -38.03125 18.296875 -38.03125 C 21.484375 -38.03125 23.941406 -37.300781 25.671875 -35.84375 C 27.410156 -34.394531 28.28125 -32.457031 28.28125 -30.03125 C 28.28125 -27.851562 27.644531 -25.882812 26.375 -24.125 C 25.101562 -22.375 23.414062 -20.992188 21.3125 -19.984375 C 24.707031 -15.097656 27.566406 -11.269531 29.890625 -8.5 C 32.210938 -5.738281 34.269531 -3.753906 36.0625 -2.546875 C 37.863281 -1.335938 39.628906 -0.734375 41.359375 -0.734375 Z M 11.8125 -20.109375 C 12.820312 -19.941406 14.015625 -19.859375 15.390625 -19.859375 C 18.535156 -19.859375 20.785156 -20.546875 22.140625 -21.921875 C 23.492188 -23.296875 24.171875 -25.414062 24.171875 -28.28125 C 24.171875 -31.425781 23.472656 -33.6875 22.078125 -35.0625 C 20.679688 -36.4375 18.648438 -37.125 15.984375 -37.125 C 14.410156 -37.125 13.320312 -36.835938 12.71875 -36.265625 C 12.113281 -35.703125 11.8125 -34.554688 11.8125 -32.828125 Z M 11.8125 -20.109375 "/></g></g><g style="fill:#000000;fill-opacity:1;"><g transform="translate(332.483353, 194.592294)"><path style="stroke:none" d="M 42.328125 -0.734375 C 42.492188 -0.734375 42.578125 -0.609375 42.578125 -0.359375 C 42.578125 -0.117188 42.492188 0 42.328125 0 C 41.566406 0 40.378906 -0.0390625 38.765625 -0.125 C 37.148438 -0.207031 35.976562 -0.25 35.25 -0.25 C 34.363281 -0.25 33.234375 -0.207031 31.859375 -0.125 C 30.566406 -0.0390625 29.578125 0 28.890625 0 C 28.722656 0 28.640625 -0.117188 28.640625 -0.359375 C 28.640625 -0.609375 28.722656 -0.734375 28.890625 -0.734375 C 30.378906 -0.734375 31.46875 -0.875 32.15625 -1.15625 C 32.84375 -1.4375 33.1875 -1.921875 33.1875 -2.609375 C 33.1875 -3.171875 32.925781 -4.035156 32.40625 -5.203125 L 27.015625 -16.65625 L 12.59375 -16.65625 L 8.78125 -7.6875 C 8.21875 -6.3125 7.9375 -5.203125 7.9375 -4.359375 C 7.9375 -3.109375 8.429688 -2.191406 9.421875 -1.609375 C 10.410156 -1.023438 11.894531 -0.734375 13.875 -0.734375 C 14.070312 -0.734375 14.171875 -0.609375 14.171875 -0.359375 C 14.171875 -0.117188 14.070312 0 13.875 0 C 13.144531 0 12.09375 -0.0390625 10.71875 -0.125 C 9.1875 -0.207031 7.851562 -0.25 6.71875 -0.25 C 5.664062 -0.25 4.457031 -0.207031 3.09375 -0.125 C 1.875 -0.0390625 0.863281 0 0.0625 0 C -0.144531 0 -0.25 -0.117188 -0.25 -0.359375 C -0.25 -0.609375 -0.144531 -0.734375 0.0625 -0.734375 C 1.1875 -0.734375 2.144531 -0.941406 2.9375 -1.359375 C 3.726562 -1.785156 4.472656 -2.53125 5.171875 -3.59375 C 5.878906 -4.664062 6.660156 -6.210938 7.515625 -8.234375 L 20.28125 -38.390625 C 20.363281 -38.515625 20.503906 -38.578125 20.703125 -38.578125 C 20.910156 -38.578125 21.035156 -38.515625 21.078125 -38.390625 L 35.375 -8.296875 C 36.738281 -5.304688 37.90625 -3.296875 38.875 -2.265625 C 39.84375 -1.242188 40.992188 -0.734375 42.328125 -0.734375 Z M 13.078125 -17.859375 L 26.46875 -17.859375 L 19.375 -32.828125 Z M 13.078125 -17.859375 "/></g></g><g style="fill:#000000;fill-opacity:1;"><g transform="translate(18.945699, 253.102701)"><path style="stroke:none" d="M 141.734375 -132.40625 C 142.160156 -132.40625 142.375 -131.984375 142.375 -131.140625 C 142.375 -130.296875 142.160156 -129.875 141.734375 -129.875 C 136.929688 -129.875 132.765625 -128.601562 129.234375 -126.0625 C 125.703125 -123.519531 122.738281 -119.210938 120.34375 -113.140625 L 75.203125 -0.21875 C 75.066406 0.351562 74.289062 0.640625 72.875 0.640625 C 71.75 0.640625 70.972656 0.351562 70.546875 -0.21875 L 17.796875 -114.828125 C 15.390625 -120.335938 12.84375 -124.222656 10.15625 -126.484375 C 7.476562 -128.742188 4.019531 -129.875 -0.21875 -129.875 C -0.632812 -129.875 -0.84375 -130.296875 -0.84375 -131.140625 C -0.84375 -131.984375 -0.632812 -132.40625 -0.21875 -132.40625 L 7.84375 -132.203125 C 11.789062 -131.921875 14.96875 -131.78125 17.375 -131.78125 C 23.019531 -131.78125 29.09375 -131.921875 35.59375 -132.203125 L 44.28125 -132.40625 C 44.707031 -132.40625 44.921875 -131.984375 44.921875 -131.140625 C 44.921875 -130.296875 44.707031 -129.875 44.28125 -129.875 C 35.519531 -129.875 31.140625 -127.398438 31.140625 -122.453125 C 31.140625 -120.753906 31.773438 -118.492188 33.046875 -115.671875 L 77.328125 -18.640625 L 115.46875 -114.1875 C 116.59375 -117.15625 117.15625 -119.488281 117.15625 -121.1875 C 117.15625 -124.144531 115.8125 -126.332031 113.125 -127.75 C 110.445312 -129.164062 106.285156 -129.875 100.640625 -129.875 C 100.210938 -129.875 100 -130.296875 100 -131.140625 C 100 -131.984375 100.210938 -132.40625 100.640625 -132.40625 L 109.75 -132.203125 C 114.550781 -131.921875 118.925781 -131.78125 122.875 -131.78125 C 125.84375 -131.78125 129.160156 -131.921875 132.828125 -132.203125 Z M 141.734375 -132.40625 "/></g></g><g clip-rule="nonzero" clip-path="url(#a326ab8f20)"><path style=" stroke:none;fill-rule:nonzero;fill:#808000;fill-opacity:1;" d="M 8.46875 106.808594 C 8.414062 106.800781 8.339844 106.808594 8.242188 106.824219 C 7.652344 106.9375 6.859375 109.15625 6.484375 111.746094 C 6.179688 113.84375 6.277344 115.695312 6.875 119.136719 L 7.21875 121.140625 L 6.015625 122.195312 C 5.351562 122.777344 4.609375 123.640625 4.367188 124.117188 C 3.773438 125.277344 1.578125 132.179688 1.140625 134.261719 C 0.101562 139.183594 1.410156 141.996094 2.707031 137.625 C 3.203125 135.949219 5.527344 130.0625 6.152344 128.910156 C 6.648438 127.988281 6.574219 128.796875 5.894531 131.820312 C 5.121094 135.246094 4.65625 138.921875 4.476562 143.066406 C 4.300781 147.136719 4.503906 148.773438 5.183594 148.773438 C 5.601562 148.773438 5.675781 148.554688 5.828125 146.898438 C 6.074219 144.171875 6.609375 141.546875 7.570312 138.304688 C 8.039062 136.738281 8.664062 134.601562 8.964844 133.5625 C 9.261719 132.523438 9.617188 131.632812 9.753906 131.589844 C 10.097656 131.472656 11.941406 138.222656 11.957031 139.65625 C 11.964844 140.167969 11.824219 140.320312 11.265625 140.445312 C 10.238281 140.667969 8.734375 142.429688 8.289062 143.917969 C 8.085938 144.609375 7.917969 145.890625 7.917969 146.765625 C 7.917969 149.527344 8.816406 151.253906 10.824219 152.347656 C 13.207031 153.644531 15.453125 152.660156 16.757812 149.75 C 17.523438 148.054688 17.542969 144.921875 16.796875 143.539062 C 16.269531 142.558594 15.226562 141.476562 13.984375 140.628906 C 13.332031 140.183594 13.214844 139.894531 12.699219 137.375 C 12.386719 135.851562 12.1875 134.550781 12.253906 134.484375 C 12.320312 134.417969 13.109375 135.519531 14.011719 136.929688 C 16.121094 140.242188 18.671875 143.667969 20.890625 146.15625 L 22.652344 148.136719 L 22.894531 151.074219 C 23.355469 156.65625 24.34375 161.109375 26.707031 168.28125 C 27.613281 171.03125 28.414062 173.578125 28.492188 173.941406 C 28.566406 174.308594 28.796875 174.671875 29.003906 174.75 C 29.433594 174.914062 29.859375 174.386719 29.683594 173.910156 C 29.617188 173.730469 29.511719 171.214844 29.449219 168.316406 C 29.324219 162.503906 29.207031 160.996094 28.707031 158.527344 C 28.316406 156.613281 27.3125 153.394531 26.792969 152.390625 C 26.597656 152.011719 26.496094 151.648438 26.5625 151.578125 C 26.632812 151.507812 27.71875 152.136719 28.976562 152.96875 C 30.234375 153.800781 32.832031 155.34375 34.75 156.394531 L 38.234375 158.304688 L 38.664062 159.710938 C 38.898438 160.484375 39.203125 162.140625 39.339844 163.390625 C 40.113281 170.476562 42.566406 177.296875 46.414062 183.039062 C 48.90625 186.757812 49.316406 186.15625 47.792969 181.011719 C 46.992188 178.308594 46.574219 176.160156 45.378906 168.644531 C 44.921875 165.765625 44.332031 164.035156 43.210938 162.269531 C 41.820312 160.085938 41.738281 160.070312 47.292969 163.058594 C 52.925781 166.089844 53.945312 166.679688 54.402344 167.183594 C 54.640625 167.449219 54.980469 168.671875 55.25 170.238281 C 55.78125 173.328125 55.984375 174.046875 57.90625 179.550781 C 59.878906 185.214844 61.324219 188.515625 63.476562 192.304688 C 65.28125 195.480469 65.71875 195.988281 66.171875 195.441406 C 66.339844 195.238281 66.140625 194.554688 65.503906 193.136719 C 64.164062 190.164062 63.648438 188.074219 62.980469 182.914062 C 62.269531 177.453125 61.527344 174.433594 60.339844 172.171875 C 59.867188 171.269531 59.53125 170.476562 59.59375 170.414062 C 59.753906 170.25 62.105469 171.855469 64.507812 173.761719 C 66.46875 175.320312 66.496094 175.359375 66.355469 176.214844 C 66.273438 176.695312 66.207031 177.539062 66.207031 178.09375 C 66.207031 179.015625 66.136719 179.128906 65.386719 179.441406 C 64.351562 179.875 63.777344 180.964844 63.789062 182.488281 C 63.808594 185.035156 65.355469 187.671875 66.832031 187.671875 C 68.359375 187.671875 69.296875 186.265625 69.296875 183.984375 C 69.296875 182.480469 68.9375 181.464844 68.023438 180.382812 C 67.421875 179.667969 67.167969 178.632812 67.597656 178.632812 C 67.800781 178.632812 69.902344 181.675781 71.363281 184.085938 L 72.144531 185.375 L 71.589844 186.105469 C 69.472656 188.886719 69.289062 191.539062 71.105469 193.132812 C 73.285156 195.046875 76.714844 192.957031 77.289062 189.363281 C 77.375 188.824219 77.546875 188.386719 77.667969 188.386719 C 78.058594 188.386719 79.9375 192.6875 80.699219 195.320312 C 81.101562 196.714844 81.425781 198.320312 81.425781 198.886719 C 81.417969 200.429688 80.507812 202.679688 78.613281 205.847656 C 76.15625 209.949219 74.640625 214.167969 73.902344 218.957031 C 73.238281 223.234375 73.839844 229.074219 75.046875 230.085938 C 75.828125 230.738281 76.386719 230.183594 77.386719 227.742188 C 77.867188 226.574219 79.074219 224.117188 80.074219 222.285156 C 83.371094 216.230469 83.929688 213.90625 83.742188 206.941406 C 83.675781 204.519531 83.5 202.164062 83.347656 201.707031 C 83.195312 201.25 82.972656 200.234375 82.851562 199.449219 C 82.53125 197.339844 81.261719 193.074219 80.242188 190.714844 C 79.21875 188.335938 77.753906 185.914062 75.578125 182.996094 C 74.007812 180.882812 73.753906 180.441406 74.472656 181.054688 C 80.195312 185.949219 86.722656 190.210938 88.167969 190.003906 C 89.144531 189.867188 88.875 189.136719 87.097656 187.113281 C 86.140625 186.023438 84.523438 184.097656 83.507812 182.835938 C 81.101562 179.851562 79.246094 178.332031 76.316406 176.949219 C 73.5625 175.644531 71.410156 175.0625 69.363281 175.0625 C 68.042969 175.0625 67.824219 174.984375 66.882812 174.191406 C 64.859375 172.488281 61.15625 169.820312 58.820312 168.382812 C 57.515625 167.582031 56.511719 166.832031 56.582031 166.714844 C 56.65625 166.59375 57.132812 166.5 57.640625 166.5 C 58.417969 166.5 58.667969 166.628906 59.199219 167.324219 C 60.507812 169.042969 64.253906 170.121094 65.914062 169.261719 C 66.832031 168.785156 67.15625 168.222656 67.15625 167.097656 C 67.15625 165.328125 65.640625 163.671875 63.449219 163.03125 C 61.503906 162.46875 60.65625 162.707031 59.09375 164.257812 L 57.792969 165.546875 L 55.945312 165.546875 C 54.316406 165.546875 53.945312 165.460938 52.886719 164.835938 C 51.710938 164.140625 43.292969 159.625 38.90625 157.332031 C 37.695312 156.703125 36.703125 156.09375 36.703125 155.988281 C 36.703125 155.664062 40.304688 155.769531 42.5625 156.15625 C 45.457031 156.65625 47.65625 157.292969 51.601562 158.773438 C 55.6875 160.304688 58.800781 161.09375 63.347656 161.75 C 66.996094 162.277344 72.527344 162.714844 73.039062 162.519531 C 73.203125 162.457031 73.339844 162.203125 73.339844 161.960938 C 73.339844 161.640625 73.0625 161.449219 72.332031 161.265625 C 69.777344 160.621094 67.511719 159.589844 64.082031 157.511719 C 56.050781 152.644531 52.519531 151.429688 46.339844 151.410156 C 41.582031 151.398438 37.242188 152.195312 34.875 153.519531 C 33.476562 154.300781 33.179688 154.285156 31.65625 153.355469 C 26.945312 150.476562 23.46875 147.550781 20.398438 143.867188 C 18.46875 141.550781 15.53125 137.421875 15.53125 137.023438 C 15.53125 136.398438 16.09375 136.753906 21.171875 140.621094 C 25.742188 144.101562 33.089844 147.734375 40.09375 149.988281 C 42.011719 150.605469 42.210938 150.625 42.5625 150.273438 C 42.773438 150.0625 42.875 149.773438 42.785156 149.628906 C 42.695312 149.488281 40.945312 148.519531 38.890625 147.480469 C 34.683594 145.351562 31.585938 143.445312 27.839844 140.675781 C 24.394531 138.132812 21.246094 136.171875 19.632812 135.566406 C 18.890625 135.289062 17.351562 134.996094 16.15625 134.902344 L 14.011719 134.738281 L 13.226562 133.429688 C 11.742188 130.964844 8.855469 123.847656 9.199219 123.503906 C 9.285156 123.417969 10.183594 124.183594 11.195312 125.207031 C 14.671875 128.722656 18.148438 130.5625 21.324219 130.570312 C 22.742188 130.570312 25.40625 129.699219 30.347656 127.597656 C 35.097656 125.582031 35.558594 124.933594 32.636719 124.386719 C 30.394531 123.964844 28.828125 123.429688 26.660156 122.339844 C 23.695312 120.851562 22.160156 120.492188 18.742188 120.492188 C 16.621094 120.492188 15.253906 120.628906 13.417969 121.039062 C 10.730469 121.636719 8.972656 121.609375 8.496094 120.957031 C 8.101562 120.417969 7.441406 115.972656 7.441406 113.855469 C 7.441406 112.804688 7.648438 111.332031 7.949219 110.210938 C 8.226562 109.175781 8.507812 107.972656 8.574219 107.535156 C 8.648438 107.023438 8.640625 106.839844 8.46875 106.808594 Z M 68.765625 177.539062 C 68.820312 177.554688 68.898438 177.59375 69.007812 177.652344 C 69.988281 178.179688 75.484375 184.324219 75.484375 184.898438 C 75.484375 184.984375 75.402344 185.039062 75.304688 185.019531 C 75.207031 185.003906 74.699219 184.921875 74.171875 184.84375 C 73.273438 184.707031 73.125 184.554688 71.367188 181.960938 C 70.34375 180.457031 69.296875 178.820312 69.035156 178.320312 C 68.691406 177.667969 68.605469 177.488281 68.765625 177.539062 Z M 68.765625 177.539062 "/></g><g clip-rule="nonzero" clip-path="url(#1e32fc04e2)"><g clip-rule="nonzero" clip-path="url(#71bde58e8c)"><g clip-rule="nonzero" clip-path="url(#b73084d642)"><path style=" stroke:none;fill-rule:nonzero;fill:#808000;fill-opacity:1;" d="M 14.128906 113.871094 C 14.074219 113.851562 14 113.847656 13.902344 113.847656 C 13.304688 113.855469 12.136719 115.90625 11.316406 118.390625 C 10.652344 120.402344 10.425781 122.242188 10.417969 125.734375 L 10.410156 127.769531 L 9.039062 128.597656 C 8.285156 129.054688 7.40625 129.777344 7.082031 130.203125 C 6.296875 131.246094 2.9375 137.660156 2.144531 139.636719 C 0.265625 144.300781 1.066406 147.296875 3.101562 143.21875 C 3.882812 141.65625 7.195312 136.261719 8.007812 135.234375 C 8.65625 134.414062 8.445312 135.199219 7.25 138.054688 C 5.890625 141.296875 4.796875 144.832031 3.902344 148.882812 C 3.019531 152.859375 2.933594 154.511719 3.605469 154.628906 C 4.019531 154.703125 4.128906 154.5 4.566406 152.894531 C 5.28125 150.25 6.265625 147.757812 7.777344 144.734375 C 8.507812 143.269531 9.496094 141.277344 9.96875 140.304688 C 10.445312 139.332031 10.949219 138.519531 11.089844 138.5 C 11.453125 138.445312 12.09375 145.410156 11.859375 146.824219 C 11.78125 147.328125 11.617188 147.457031 11.042969 147.480469 C 9.992188 147.523438 8.203125 148.996094 7.507812 150.386719 C 7.1875 151.03125 6.800781 152.261719 6.648438 153.125 C 6.167969 155.847656 6.753906 157.703125 8.539062 159.128906 C 10.660156 160.820312 13.046875 160.242188 14.835938 157.601562 C 15.882812 156.0625 16.445312 152.980469 15.953125 151.492188 C 15.601562 150.429688 14.761719 149.1875 13.6875 148.136719 C 13.121094 147.585938 13.058594 147.277344 12.988281 144.707031 C 12.945312 143.152344 12.972656 141.839844 13.050781 141.785156 C 13.125 141.730469 13.714844 142.953125 14.355469 144.496094 C 15.859375 148.128906 17.777344 151.941406 19.527344 154.777344 L 20.917969 157.035156 L 20.648438 159.96875 C 20.132812 165.546875 20.332031 170.105469 21.414062 177.578125 C 21.828125 180.441406 22.179688 183.089844 22.1875 183.460938 C 22.199219 183.835938 22.363281 184.234375 22.554688 184.347656 C 22.945312 184.582031 23.457031 184.136719 23.367188 183.636719 C 23.335938 183.449219 23.667969 180.953125 24.109375 178.089844 C 24.996094 172.34375 25.144531 170.835938 25.078125 168.320312 C 25.027344 166.363281 24.597656 163.019531 24.261719 161.941406 C 24.132812 161.535156 24.09375 161.160156 24.175781 161.101562 C 24.253906 161.046875 25.214844 161.851562 26.308594 162.890625 C 27.402344 163.929688 29.695312 165.898438 31.398438 167.265625 L 34.5 169.753906 L 34.679688 171.210938 C 34.777344 172.015625 34.789062 173.699219 34.707031 174.953125 C 34.234375 182.066406 35.46875 189.207031 38.261719 195.53125 C 40.070312 199.628906 40.578125 199.105469 39.972656 193.773438 C 39.652344 190.976562 39.613281 188.789062 39.742188 181.175781 C 39.789062 178.261719 39.511719 176.457031 38.710938 174.523438 C 37.722656 172.128906 37.644531 172.101562 42.59375 176.007812 C 47.617188 179.972656 48.519531 180.730469 48.878906 181.304688 C 49.070312 181.605469 49.191406 182.871094 49.183594 184.460938 C 49.167969 187.597656 49.246094 188.339844 50.183594 194.09375 C 51.144531 200.015625 51.992188 203.515625 53.453125 207.617188 C 54.683594 211.0625 55.023438 211.636719 55.5625 211.179688 C 55.765625 211.007812 55.691406 210.296875 55.304688 208.792969 C 54.503906 205.632812 54.359375 203.484375 54.59375 198.285156 C 54.847656 192.785156 54.640625 189.683594 53.863281 187.25 C 53.550781 186.277344 53.359375 185.4375 53.433594 185.386719 C 53.617188 185.257812 55.65625 187.242188 57.6875 189.539062 C 59.347656 191.414062 59.371094 191.457031 59.082031 192.273438 C 58.921875 192.734375 58.707031 193.554688 58.613281 194.097656 C 58.449219 195.007812 58.359375 195.109375 57.570312 195.285156 C 56.472656 195.53125 55.71875 196.507812 55.46875 198.007812 C 55.042969 200.519531 56.109375 203.382812 57.566406 203.640625 C 59.066406 203.90625 60.234375 202.683594 60.632812 200.4375 C 60.890625 198.957031 60.714844 197.894531 60.003906 196.667969 C 59.535156 195.859375 59.464844 194.796875 59.886719 194.871094 C 60.085938 194.90625 61.628906 198.269531 62.648438 200.894531 L 63.195312 202.300781 L 62.519531 202.925781 C 59.953125 205.296875 59.3125 207.875 60.824219 209.757812 C 62.640625 212.023438 66.378906 210.5625 67.570312 207.121094 C 67.746094 206.609375 67.992188 206.203125 68.113281 206.226562 C 68.496094 206.292969 69.597656 210.855469 69.890625 213.582031 C 70.046875 215.023438 70.085938 216.660156 69.988281 217.222656 C 69.710938 218.738281 68.425781 220.796875 66.007812 223.585938 C 62.878906 227.199219 60.652344 231.089844 59.09375 235.675781 C 57.699219 239.773438 57.277344 245.632812 58.289062 246.835938 C 58.945312 247.617188 59.589844 247.164062 61 244.933594 C 61.675781 243.867188 63.292969 241.660156 64.59375 240.027344 C 68.894531 234.636719 69.84375 232.445312 70.871094 225.554688 C 71.226562 223.160156 71.460938 220.808594 71.390625 220.332031 C 71.320312 219.855469 71.277344 218.8125 71.296875 218.019531 C 71.347656 215.886719 70.832031 211.46875 70.242188 208.96875 C 69.648438 206.445312 68.625 203.804688 66.992188 200.554688 C 65.808594 198.203125 65.636719 197.722656 66.234375 198.449219 C 71.023438 204.265625 76.710938 209.597656 78.171875 209.644531 C 79.15625 209.675781 79.015625 208.914062 77.617188 206.609375 C 76.863281 205.371094 75.605469 203.195312 74.824219 201.773438 C 72.972656 198.417969 71.410156 196.601562 68.765625 194.726562 C 66.277344 192.964844 64.261719 192.019531 62.246094 191.664062 C 60.945312 191.433594 60.742188 191.320312 59.953125 190.375 C 58.257812 188.34375 55.074219 185.074219 53.023438 183.253906 C 51.878906 182.238281 51.019531 181.324219 51.109375 181.222656 C 51.203125 181.117188 51.6875 181.105469 52.191406 181.191406 C 52.957031 181.328125 53.179688 181.5 53.578125 182.277344 C 54.570312 184.195312 58.070312 185.910156 59.859375 185.351562 C 60.84375 185.042969 61.261719 184.542969 61.457031 183.433594 C 61.761719 181.695312 60.558594 179.796875 58.507812 178.789062 C 56.695312 177.894531 55.816406 177.980469 54.007812 179.238281 L 52.503906 180.28125 L 50.683594 179.960938 C 49.078125 179.679688 48.730469 179.527344 47.796875 178.730469 C 46.757812 177.84375 39.253906 171.933594 35.328125 168.914062 C 34.246094 168.082031 33.375 167.3125 33.394531 167.207031 C 33.453125 166.886719 36.980469 167.613281 39.132812 168.390625 C 41.898438 169.386719 43.953125 170.394531 47.582031 172.539062 C 51.339844 174.753906 54.269531 176.074219 58.636719 177.507812 C 62.136719 178.660156 67.507812 180.050781 68.042969 179.949219 C 68.21875 179.914062 68.394531 179.691406 68.4375 179.453125 C 68.492188 179.136719 68.253906 178.898438 67.5625 178.589844 C 65.160156 177.511719 63.109375 176.105469 60.09375 173.460938 C 53.03125 167.273438 49.761719 165.464844 43.679688 164.375 C 38.996094 163.535156 34.585938 163.566406 32.023438 164.457031 C 30.511719 164.984375 30.222656 164.917969 28.878906 163.734375 C 24.738281 160.085938 21.828125 156.601562 19.441406 152.441406 C 17.945312 149.824219 15.765625 145.246094 15.835938 144.851562 C 15.945312 144.238281 16.4375 144.6875 20.769531 149.375 C 24.664062 153.597656 31.269531 158.453125 37.777344 161.886719 C 39.558594 162.824219 39.746094 162.882812 40.15625 162.597656 C 40.402344 162.425781 40.550781 162.15625 40.488281 162 C 40.425781 161.84375 38.867188 160.589844 37.027344 159.207031 C 33.253906 156.382812 30.535156 153.964844 27.324219 150.585938 C 24.375 147.484375 21.613281 145.007812 20.128906 144.132812 C 19.445312 143.730469 17.984375 143.175781 16.820312 142.875 L 14.738281 142.339844 L 14.191406 140.914062 C 13.160156 138.226562 11.550781 130.71875 11.949219 130.441406 C 12.050781 130.371094 12.800781 131.28125 13.617188 132.460938 C 16.429688 136.527344 19.539062 138.945312 22.664062 139.503906 C 24.058594 139.753906 26.832031 139.355469 32.0625 138.144531 C 37.09375 136.980469 37.65625 136.425781 34.878906 135.378906 C 32.742188 134.574219 31.292969 133.773438 29.347656 132.324219 C 26.6875 130.347656 25.234375 129.726562 21.871094 129.128906 C 19.78125 128.761719 18.410156 128.660156 16.53125 128.746094 C 13.78125 128.867188 12.054688 128.535156 11.699219 127.8125 C 11.40625 127.210938 11.527344 122.71875 11.894531 120.632812 C 12.078125 119.601562 12.535156 118.183594 13.027344 117.132812 C 13.480469 116.164062 13.964844 115.023438 14.105469 114.605469 C 14.265625 114.113281 14.289062 113.929688 14.128906 113.871094 Z M 61.226562 193.996094 C 61.277344 194.023438 61.351562 194.078125 61.445312 194.152344 C 62.320312 194.839844 66.664062 201.847656 66.5625 202.410156 C 66.550781 202.496094 66.460938 202.539062 66.367188 202.5 C 66.273438 202.464844 65.785156 202.300781 65.285156 202.128906 C 64.421875 201.839844 64.300781 201.664062 63.019531 198.804688 C 62.277344 197.144531 61.527344 195.351562 61.355469 194.8125 C 61.132812 194.113281 61.078125 193.921875 61.226562 193.996094 Z M 61.226562 193.996094 "/></g></g></g><g style="fill:#000000;fill-opacity:1;"><g transform="translate(144.498583, 225.351879)"><path style="stroke:none" d="M 7.921875 -12.84375 C 9.453125 -12.84375 10.691406 -12.378906 11.640625 -11.453125 C 12.597656 -10.523438 13.078125 -9.1875 13.078125 -7.4375 L 13.078125 0 L 11 0 L 11 -7.140625 C 11 -8.390625 10.679688 -9.347656 10.046875 -10.015625 C 9.421875 -10.691406 8.566406 -11.03125 7.484375 -11.03125 C 6.378906 -11.03125 5.5 -10.679688 4.84375 -9.984375 C 4.1875 -9.296875 3.859375 -8.289062 3.859375 -6.96875 L 3.859375 0 L 1.765625 0 L 1.765625 -12.609375 L 3.859375 -12.609375 L 3.859375 -10.8125 C 4.273438 -11.457031 4.835938 -11.957031 5.546875 -12.3125 C 6.265625 -12.664062 7.054688 -12.84375 7.921875 -12.84375 Z M 7.921875 -12.84375 "/></g></g><g style="fill:#000000;fill-opacity:1;"><g transform="translate(159.219486, 225.351879)"><path style="stroke:none" d="M 0.984375 -6.359375 C 0.984375 -7.640625 1.242188 -8.765625 1.765625 -9.734375 C 2.296875 -10.710938 3.015625 -11.46875 3.921875 -12 C 4.835938 -12.539062 5.851562 -12.8125 6.96875 -12.8125 C 8.070312 -12.8125 9.03125 -12.570312 9.84375 -12.09375 C 10.664062 -11.625 11.273438 -11.03125 11.671875 -10.3125 L 11.671875 -12.609375 L 13.78125 -12.609375 L 13.78125 0 L 11.671875 0 L 11.671875 -2.34375 C 11.253906 -1.613281 10.632812 -1.003906 9.8125 -0.515625 C 8.988281 -0.0351562 8.035156 0.203125 6.953125 0.203125 C 5.828125 0.203125 4.8125 -0.0703125 3.90625 -0.625 C 3.007812 -1.175781 2.296875 -1.945312 1.765625 -2.9375 C 1.242188 -3.9375 0.984375 -5.078125 0.984375 -6.359375 Z M 11.671875 -6.328125 C 11.671875 -7.273438 11.476562 -8.101562 11.09375 -8.8125 C 10.707031 -9.519531 10.1875 -10.0625 9.53125 -10.4375 C 8.882812 -10.8125 8.171875 -11 7.390625 -11 C 6.609375 -11 5.894531 -10.8125 5.25 -10.4375 C 4.601562 -10.070312 4.085938 -9.535156 3.703125 -8.828125 C 3.316406 -8.128906 3.125 -7.304688 3.125 -6.359375 C 3.125 -5.390625 3.316406 -4.546875 3.703125 -3.828125 C 4.085938 -3.117188 4.601562 -2.578125 5.25 -2.203125 C 5.894531 -1.828125 6.609375 -1.640625 7.390625 -1.640625 C 8.171875 -1.640625 8.882812 -1.828125 9.53125 -2.203125 C 10.1875 -2.578125 10.707031 -3.117188 11.09375 -3.828125 C 11.476562 -4.546875 11.671875 -5.378906 11.671875 -6.328125 Z M 11.671875 -6.328125 "/></g></g><g style="fill:#000000;fill-opacity:1;"><g transform="translate(174.76844, 225.351879)"><path style="stroke:none" d="M 4.328125 -10.890625 L 4.328125 -3.453125 C 4.328125 -2.835938 4.457031 -2.398438 4.71875 -2.140625 C 4.976562 -1.890625 5.429688 -1.765625 6.078125 -1.765625 L 7.625 -1.765625 L 7.625 0 L 5.734375 0 C 4.566406 0 3.691406 -0.265625 3.109375 -0.796875 C 2.523438 -1.335938 2.234375 -2.222656 2.234375 -3.453125 L 2.234375 -10.890625 L 0.59375 -10.890625 L 0.59375 -12.609375 L 2.234375 -12.609375 L 2.234375 -15.78125 L 4.328125 -15.78125 L 4.328125 -12.609375 L 7.625 -12.609375 L 7.625 -10.890625 Z M 4.328125 -10.890625 "/></g></g><g style="fill:#000000;fill-opacity:1;"><g transform="translate(183.140954, 225.351879)"><path style="stroke:none" d="M 12.953125 -12.609375 L 12.953125 0 L 10.859375 0 L 10.859375 -1.859375 C 10.460938 -1.210938 9.90625 -0.707031 9.1875 -0.34375 C 8.476562 0.0078125 7.691406 0.1875 6.828125 0.1875 C 5.847656 0.1875 4.96875 -0.015625 4.1875 -0.421875 C 3.40625 -0.828125 2.785156 -1.4375 2.328125 -2.25 C 1.878906 -3.0625 1.65625 -4.050781 1.65625 -5.21875 L 1.65625 -12.609375 L 3.734375 -12.609375 L 3.734375 -5.5 C 3.734375 -4.257812 4.046875 -3.304688 4.671875 -2.640625 C 5.296875 -1.972656 6.15625 -1.640625 7.25 -1.640625 C 8.375 -1.640625 9.253906 -1.984375 9.890625 -2.671875 C 10.535156 -3.359375 10.859375 -4.363281 10.859375 -5.6875 L 10.859375 -12.609375 Z M 12.953125 -12.609375 "/></g></g><g style="fill:#000000;fill-opacity:1;"><g transform="translate(197.861858, 225.351879)"><path style="stroke:none" d="M 3.859375 -10.5625 C 4.234375 -11.28125 4.757812 -11.835938 5.4375 -12.234375 C 6.125 -12.640625 6.957031 -12.84375 7.9375 -12.84375 L 7.9375 -10.671875 L 7.390625 -10.671875 C 5.035156 -10.671875 3.859375 -9.398438 3.859375 -6.859375 L 3.859375 0 L 1.765625 0 L 1.765625 -12.609375 L 3.859375 -12.609375 Z M 3.859375 -10.5625 "/></g></g><g style="fill:#000000;fill-opacity:1;"><g transform="translate(206.441395, 225.351879)"><path style="stroke:none" d="M 0.984375 -6.359375 C 0.984375 -7.640625 1.242188 -8.765625 1.765625 -9.734375 C 2.296875 -10.710938 3.015625 -11.46875 3.921875 -12 C 4.835938 -12.539062 5.851562 -12.8125 6.96875 -12.8125 C 8.070312 -12.8125 9.03125 -12.570312 9.84375 -12.09375 C 10.664062 -11.625 11.273438 -11.03125 11.671875 -10.3125 L 11.671875 -12.609375 L 13.78125 -12.609375 L 13.78125 0 L 11.671875 0 L 11.671875 -2.34375 C 11.253906 -1.613281 10.632812 -1.003906 9.8125 -0.515625 C 8.988281 -0.0351562 8.035156 0.203125 6.953125 0.203125 C 5.828125 0.203125 4.8125 -0.0703125 3.90625 -0.625 C 3.007812 -1.175781 2.296875 -1.945312 1.765625 -2.9375 C 1.242188 -3.9375 0.984375 -5.078125 0.984375 -6.359375 Z M 11.671875 -6.328125 C 11.671875 -7.273438 11.476562 -8.101562 11.09375 -8.8125 C 10.707031 -9.519531 10.1875 -10.0625 9.53125 -10.4375 C 8.882812 -10.8125 8.171875 -11 7.390625 -11 C 6.609375 -11 5.894531 -10.8125 5.25 -10.4375 C 4.601562 -10.070312 4.085938 -9.535156 3.703125 -8.828125 C 3.316406 -8.128906 3.125 -7.304688 3.125 -6.359375 C 3.125 -5.390625 3.316406 -4.546875 3.703125 -3.828125 C 4.085938 -3.117188 4.601562 -2.578125 5.25 -2.203125 C 5.894531 -1.828125 6.609375 -1.640625 7.390625 -1.640625 C 8.171875 -1.640625 8.882812 -1.828125 9.53125 -2.203125 C 10.1875 -2.578125 10.707031 -3.117188 11.09375 -3.828125 C 11.476562 -4.546875 11.671875 -5.378906 11.671875 -6.328125 Z M 11.671875 -6.328125 "/></g></g><g style="fill:#000000;fill-opacity:1;"><g transform="translate(221.99035, 225.351879)"><path style="stroke:none" d="M 3.859375 -17.03125 L 3.859375 0 L 1.765625 0 L 1.765625 -17.03125 Z M 3.859375 -17.03125 "/></g></g><g style="fill:#000000;fill-opacity:1;"><g transform="translate(227.648697, 225.351879)"><path style="stroke:none" d=""/></g></g><g style="fill:#000000;fill-opacity:1;"><g transform="translate(233.790085, 225.351879)"><path style="stroke:none" d="M 3.859375 -10.265625 C 4.296875 -11.015625 4.925781 -11.625 5.75 -12.09375 C 6.582031 -12.570312 7.523438 -12.8125 8.578125 -12.8125 C 9.710938 -12.8125 10.734375 -12.539062 11.640625 -12 C 12.546875 -11.46875 13.257812 -10.710938 13.78125 -9.734375 C 14.300781 -8.765625 14.5625 -7.640625 14.5625 -6.359375 C 14.5625 -5.078125 14.300781 -3.9375 13.78125 -2.9375 C 13.257812 -1.945312 12.539062 -1.175781 11.625 -0.625 C 10.71875 -0.0703125 9.703125 0.203125 8.578125 0.203125 C 7.492188 0.203125 6.539062 -0.03125 5.71875 -0.5 C 4.894531 -0.976562 4.273438 -1.585938 3.859375 -2.328125 L 3.859375 0 L 1.765625 0 L 1.765625 -17.03125 L 3.859375 -17.03125 Z M 12.421875 -6.359375 C 12.421875 -7.304688 12.226562 -8.128906 11.84375 -8.828125 C 11.46875 -9.535156 10.953125 -10.070312 10.296875 -10.4375 C 9.648438 -10.8125 8.929688 -11 8.140625 -11 C 7.378906 -11 6.671875 -10.8125 6.015625 -10.4375 C 5.367188 -10.0625 4.847656 -9.515625 4.453125 -8.796875 C 4.054688 -8.085938 3.859375 -7.265625 3.859375 -6.328125 C 3.859375 -5.378906 4.054688 -4.546875 4.453125 -3.828125 C 4.847656 -3.117188 5.367188 -2.578125 6.015625 -2.203125 C 6.671875 -1.828125 7.378906 -1.640625 8.140625 -1.640625 C 8.929688 -1.640625 9.648438 -1.828125 10.296875 -2.203125 C 10.953125 -2.578125 11.46875 -3.117188 11.84375 -3.828125 C 12.226562 -4.546875 12.421875 -5.390625 12.421875 -6.359375 Z M 12.421875 -6.359375 "/></g></g><g style="fill:#000000;fill-opacity:1;"><g transform="translate(249.339039, 225.351879)"><path style="stroke:none" d="M 13.28125 -6.796875 C 13.28125 -6.390625 13.257812 -5.96875 13.21875 -5.53125 L 3.125 -5.53125 C 3.207031 -4.28125 3.632812 -3.304688 4.40625 -2.609375 C 5.175781 -1.910156 6.117188 -1.5625 7.234375 -1.5625 C 8.128906 -1.5625 8.878906 -1.769531 9.484375 -2.1875 C 10.097656 -2.613281 10.523438 -3.179688 10.765625 -3.890625 L 13.03125 -3.890625 C 12.6875 -2.679688 12.007812 -1.695312 11 -0.9375 C 9.988281 -0.175781 8.734375 0.203125 7.234375 0.203125 C 6.035156 0.203125 4.960938 -0.0625 4.015625 -0.59375 C 3.066406 -1.132812 2.320312 -1.898438 1.78125 -2.890625 C 1.25 -3.878906 0.984375 -5.023438 0.984375 -6.328125 C 0.984375 -7.628906 1.242188 -8.769531 1.765625 -9.75 C 2.296875 -10.738281 3.03125 -11.492188 3.96875 -12.015625 C 4.914062 -12.546875 6.003906 -12.8125 7.234375 -12.8125 C 8.421875 -12.8125 9.472656 -12.550781 10.390625 -12.03125 C 11.316406 -11.507812 12.03125 -10.789062 12.53125 -9.875 C 13.03125 -8.96875 13.28125 -7.941406 13.28125 -6.796875 Z M 11.109375 -7.234375 C 11.109375 -8.023438 10.929688 -8.707031 10.578125 -9.28125 C 10.234375 -9.863281 9.753906 -10.300781 9.140625 -10.59375 C 8.535156 -10.894531 7.867188 -11.046875 7.140625 -11.046875 C 6.078125 -11.046875 5.171875 -10.707031 4.421875 -10.03125 C 3.679688 -9.351562 3.257812 -8.421875 3.15625 -7.234375 Z M 11.109375 -7.234375 "/></g></g><g style="fill:#000000;fill-opacity:1;"><g transform="translate(263.599914, 225.351879)"><path style="stroke:none" d="M 0.984375 -6.359375 C 0.984375 -7.640625 1.242188 -8.765625 1.765625 -9.734375 C 2.296875 -10.710938 3.015625 -11.46875 3.921875 -12 C 4.835938 -12.539062 5.851562 -12.8125 6.96875 -12.8125 C 8.070312 -12.8125 9.03125 -12.570312 9.84375 -12.09375 C 10.664062 -11.625 11.273438 -11.03125 11.671875 -10.3125 L 11.671875 -12.609375 L 13.78125 -12.609375 L 13.78125 0 L 11.671875 0 L 11.671875 -2.34375 C 11.253906 -1.613281 10.632812 -1.003906 9.8125 -0.515625 C 8.988281 -0.0351562 8.035156 0.203125 6.953125 0.203125 C 5.828125 0.203125 4.8125 -0.0703125 3.90625 -0.625 C 3.007812 -1.175781 2.296875 -1.945312 1.765625 -2.9375 C 1.242188 -3.9375 0.984375 -5.078125 0.984375 -6.359375 Z M 11.671875 -6.328125 C 11.671875 -7.273438 11.476562 -8.101562 11.09375 -8.8125 C 10.707031 -9.519531 10.1875 -10.0625 9.53125 -10.4375 C 8.882812 -10.8125 8.171875 -11 7.390625 -11 C 6.609375 -11 5.894531 -10.8125 5.25 -10.4375 C 4.601562 -10.070312 4.085938 -9.535156 3.703125 -8.828125 C 3.316406 -8.128906 3.125 -7.304688 3.125 -6.359375 C 3.125 -5.390625 3.316406 -4.546875 3.703125 -3.828125 C 4.085938 -3.117188 4.601562 -2.578125 5.25 -2.203125 C 5.894531 -1.828125 6.609375 -1.640625 7.390625 -1.640625 C 8.171875 -1.640625 8.882812 -1.828125 9.53125 -2.203125 C 10.1875 -2.578125 10.707031 -3.117188 11.09375 -3.828125 C 11.476562 -4.546875 11.671875 -5.378906 11.671875 -6.328125 Z M 11.671875 -6.328125 "/></g></g><g style="fill:#000000;fill-opacity:1;"><g transform="translate(279.148869, 225.351879)"><path style="stroke:none" d="M 12.953125 -12.609375 L 12.953125 0 L 10.859375 0 L 10.859375 -1.859375 C 10.460938 -1.210938 9.90625 -0.707031 9.1875 -0.34375 C 8.476562 0.0078125 7.691406 0.1875 6.828125 0.1875 C 5.847656 0.1875 4.96875 -0.015625 4.1875 -0.421875 C 3.40625 -0.828125 2.785156 -1.4375 2.328125 -2.25 C 1.878906 -3.0625 1.65625 -4.050781 1.65625 -5.21875 L 1.65625 -12.609375 L 3.734375 -12.609375 L 3.734375 -5.5 C 3.734375 -4.257812 4.046875 -3.304688 4.671875 -2.640625 C 5.296875 -1.972656 6.15625 -1.640625 7.25 -1.640625 C 8.375 -1.640625 9.253906 -1.984375 9.890625 -2.671875 C 10.535156 -3.359375 10.859375 -4.363281 10.859375 -5.6875 L 10.859375 -12.609375 Z M 12.953125 -12.609375 "/></g></g><g style="fill:#000000;fill-opacity:1;"><g transform="translate(293.869772, 225.351879)"><path style="stroke:none" d="M 4.328125 -10.890625 L 4.328125 -3.453125 C 4.328125 -2.835938 4.457031 -2.398438 4.71875 -2.140625 C 4.976562 -1.890625 5.429688 -1.765625 6.078125 -1.765625 L 7.625 -1.765625 L 7.625 0 L 5.734375 0 C 4.566406 0 3.691406 -0.265625 3.109375 -0.796875 C 2.523438 -1.335938 2.234375 -2.222656 2.234375 -3.453125 L 2.234375 -10.890625 L 0.59375 -10.890625 L 0.59375 -12.609375 L 2.234375 -12.609375 L 2.234375 -15.78125 L 4.328125 -15.78125 L 4.328125 -12.609375 L 7.625 -12.609375 L 7.625 -10.890625 Z M 4.328125 -10.890625 "/></g></g><g style="fill:#000000;fill-opacity:1;"><g transform="translate(302.242286, 225.351879)"><path style="stroke:none" d="M 12.640625 -12.609375 L 5.046875 5.9375 L 2.875 5.9375 L 5.359375 -0.140625 L 0.28125 -12.609375 L 2.59375 -12.609375 L 6.5625 -2.390625 L 10.46875 -12.609375 Z M 12.640625 -12.609375 "/></g></g></g></svg>